# xmcd
#
# Track frame offsets:
#	150
#	13274
#	25513
#	39325
#	51723
#	62296
#	73687
#	85710
#	97200
#	110593
#	123759
#
# Disc length: 1823 seconds
#
# Revision: 1
# Processed by: cddbd v1.5.2PL0 Copyright (c) Steve Scherf et al.
# Submitted via: audiograbber 1.83.01
#
DISCID=8d071d0b
DTITLE=Contours - 20th Century Masters - The Millennium Collection - The Best O
DTITLE=f
DYEAR=1900
DGENRE=Oldies
TTITLE0=Do You Love Me
TTITLE1=Shake Sherry
TTITLE2=First I Look At The Purse
TTITLE3=Just A Little Misunderstanding
TTITLE4=Can You Do It
TTITLE5=Can You Jerk Like Me
TTITLE6=It's So Hard Being A Loser
TTITLE7=That Day When She Needed Me
TTITLE8=Funny
TTITLE9=Whole Lotta Woman
TTITLE10=Don't Let Her Be Your Baby
EXTD=
EXTT0=
EXTT1=
EXTT2=
EXTT3=
EXTT4=
EXTT5=
EXTT6=
EXTT7=
EXTT8=
EXTT9=
EXTT10=
PLAYORDER=
